<svg xmlns="http://www.w3.org/2000/svg" class="c-site-logo_image-small g-fill-white c-site-logo_image" width="1024px" height="1024px" viewBox="0 0 39.997596740722656 39.997596740722656" fill="rgb(232, 230, 227)"><svg id="logoMobile" viewBox="0 0 41 40" fill="none"><path d="M37.6658 19.36C37.6658 23.9976 35.8239 28.4452 32.5452 31.7249C29.2664 35.0046 24.8193 36.8478 20.1818 36.8492C15.5443 36.8505 11.0961 35.0099 7.81539 31.7322C4.53472 28.4544 2.69022 24.0078 2.6875 19.3703C2.68479 14.7327 4.52409 10.284 7.80092 7.00236C11.0778 3.72074 15.5238 1.87494 20.1613 1.87087C24.7989 1.8668 29.2481 3.70481 32.5307 6.98068C35.8133 10.2565 37.6604 14.7021 37.6658 19.3396" fill="black" data-darkreader-inline-fill="" style="--darkreader-inline-fill: #e8e6e3;"/><path d="M20.4822 8.05032e-06C15.1789 0.00472041 10.0946 2.11554 6.34742 5.86828C2.60021 9.62102 0.49689 14.7084 0.500003 20.0117C0.503076 25.315 2.61239 30.4 6.36407 34.1484C10.1158 37.8968 15.2026 40.0016 20.506 40C25.8093 39.9985 30.8949 37.8906 34.6444 34.14C38.3938 30.3894 40.5001 25.3031 40.5 19.9998V19.9764C40.4938 14.6731 38.3815 9.58935 34.6275 5.8432C30.8736 2.09705 25.7855 -0.00474688 20.4822 8.05032e-06ZM20.3908 4.27438C24.5447 4.27063 28.5301 5.91689 31.4704 8.85113C34.4107 11.7854 36.0652 15.7673 36.07 19.9212V19.9393C36.07 24.0932 34.4201 28.0769 31.4833 31.0146C28.5465 33.9522 24.5632 35.6031 20.4093 35.6043C16.2555 35.6055 12.2712 33.9569 9.33272 31.0209C6.39421 28.085 4.74207 24.1022 4.73964 19.9484C4.73728 15.7946 6.38474 11.8099 9.31976 8.87064C12.2548 5.93135 16.237 4.27808 20.3908 4.27438Z" fill="#FFBD3F" data-darkreader-inline-fill="" style="--darkreader-inline-fill: #ffbf46;"/><path d="M17.7181 32.9368L21.1281 29.5268L14.5615 22.9602C14.285 22.6837 13.9854 22.338 13.8242 21.9463C13.4555 21.163 13.2942 19.9418 14.1928 19.0432C15.2988 17.9372 16.7734 18.3981 18.2019 19.8266L24.5151 26.1398L27.9252 22.7297L21.3355 16.1401C21.059 15.8636 20.7364 15.4488 20.5751 15.1032C20.1374 14.2046 20.1604 13.0756 20.9668 12.2692C22.0958 11.1402 23.5704 11.5549 25.2063 13.1908L31.3352 19.3197L34.7453 15.9096L28.1095 9.27388C24.7455 5.90992 21.5889 6.02513 19.4231 8.19097C18.5936 9.02044 18.0867 9.89599 17.8333 10.8867C17.6259 11.7393 17.5568 12.6839 17.7411 13.6977L17.695 13.7438C16.0361 13.0526 14.1467 13.4673 12.6952 14.9189C10.7597 16.8543 10.8288 18.905 11.0593 20.1031L10.9901 20.1722L9.30816 18.8128L6.35892 21.762C7.39576 22.7067 8.63998 23.8587 10.0455 25.2642L17.7181 32.9368Z" fill="#F2F2F2" data-darkreader-inline-fill="" style="--darkreader-inline-fill: #e0ddd9;"/></svg></svg>