<?xml version="1.0" standalone="no"?><!DOCTYPE svg PUBLIC "-//W3C//DTD SVG 1.1//EN" "http://www.w3.org/Graphics/SVG/1.1/DTD/svg11.dtd"><svg t="1775898272437" class="icon" viewBox="0 0 1024 1024" version="1.1" xmlns="http://www.w3.org/2000/svg" p-id="35651" data-darkreader-inline-fill="" xmlns:xlink="http://www.w3.org/1999/xlink" width="200" height="200"><path d="M896 981.333333H128a85.333333 85.333333 0 0 1-85.333333-85.333333V128a85.333333 85.333333 0 0 1 85.333333-85.333333h768a85.333333 85.333333 0 0 1 85.333333 85.333333v768a85.333333 85.333333 0 0 1-85.333333 85.333333z m0-85.333333V128H128v768z" fill="#13227a" p-id="35652" data-darkreader-inline-fill="" style="--darkreader-inline-fill: var(--darkreader-background-13227a, #122176);"></path><path d="M213.333333 256l597.333334 0 0 85.333333-597.333334 0 0-85.333333Z" fill="#13227a" p-id="35653" data-darkreader-inline-fill="" style="--darkreader-inline-fill: var(--darkreader-background-13227a, #122176);"></path><path d="M213.333333 469.333333l597.333334 0 0 85.333334-597.333334 0 0-85.333334Z" fill="#13227a" p-id="35654" data-darkreader-inline-fill="" style="--darkreader-inline-fill: var(--darkreader-background-13227a, #122176);"></path><path d="M213.333333 682.666667l597.333334 0 0 85.333333-597.333334 0 0-85.333333Z" fill="#13227a" p-id="35655" data-darkreader-inline-fill="" style="--darkreader-inline-fill: var(--darkreader-background-13227a, #122176);"></path><path d="M725.333333 298.666667a85.333333 85.333333 0 1 1-85.333333-85.333334 85.333333 85.333333 0 0 1 85.333333 85.333334z m-42.666666 0a42.666667 42.666667 0 1 0-42.666667 42.666666 42.666667 42.666667 0 0 0 42.666667-42.666666zM469.333333 512a85.333333 85.333333 0 1 1-85.333333-85.333333 85.333333 85.333333 0 0 1 85.333333 85.333333z m-42.666666 0a42.666667 42.666667 0 1 0-42.666667 42.666667 42.666667 42.666667 0 0 0 42.666667-42.666667zM597.333333 725.333333a85.333333 85.333333 0 1 1-85.333333-85.333333 85.333333 85.333333 0 0 1 85.333333 85.333333z m-42.666666 0a42.666667 42.666667 0 1 0-42.666667 42.666667 42.666667 42.666667 0 0 0 42.666667-42.666667z" fill="#13227a" p-id="35656" data-darkreader-inline-fill="" style="--darkreader-inline-fill: var(--darkreader-background-13227a, #122176);"></path></svg>