<?xml version="1.0" standalone="no"?><!DOCTYPE svg PUBLIC "-//W3C//DTD SVG 1.1//EN" "http://www.w3.org/Graphics/SVG/1.1/DTD/svg11.dtd"><svg t="1775897105368" class="icon" viewBox="0 0 1024 1024" version="1.1" xmlns="http://www.w3.org/2000/svg" p-id="32281" data-darkreader-inline-fill="" xmlns:xlink="http://www.w3.org/1999/xlink" width="200" height="200"><path d="M597.376 772.266667c0.768 0 1.536-0.042667 3.882667-0.256 3.712-0.298667 6.058667-0.341333 8.704-0.128 11.648 0.981333 18.773333 8.106667 19.029333 23.125333 0.128 11.733333-7.210667 17.749333-18.773333 19.413333a66.389333 66.389333 0 0 1-11.008 0.512H310.357333A101.290667 101.290667 0 0 1 209.066667 713.557333V310.357333A101.290667 101.290667 0 0 1 310.357333 209.066667h403.285334A101.290667 101.290667 0 0 1 814.933333 310.357333V597.333333c0 19.114667-8.746667 28.16-20.949333 28.16-12.032 0-23.424-11.136-23.424-28.16V311.253333c0-34.816-24.874667-61.610667-58.24-61.610666h-400.64c-34.048 0-61.653333 27.562667-61.653333 61.610666v402.773334c0 33.28 26.88 58.24 61.696 58.24h285.653333z m208.085333 3.712c4.650667 5.717333 7.338667 11.605333 6.954667 17.578666a16.725333 16.725333 0 0 1-5.162667 10.965334c-8.96 8.96-18.858667 9.173333-27.648 4.053333a23.893333 23.893333 0 0 1-4.565333-3.370667l-156.117333-154.752a174.933333 174.933333 0 1 1 31.573333-31.573333l148.48 150.357333c1.706667 1.450667 4.096 3.754667 6.485333 6.741334zM512 635.733333a123.690667 123.690667 0 1 0 0.042667-247.338666A123.690667 123.690667 0 0 0 512 635.733333z" fill="#1afa29" p-id="32282" data-darkreader-inline-fill="" style="--darkreader-inline-fill: var(--darkreader-background-1afa29, #04bb3b);"></path></svg>