<?xml version="1.0" standalone="no"?><!DOCTYPE svg PUBLIC "-//W3C//DTD SVG 1.1//EN" "http://www.w3.org/Graphics/SVG/1.1/DTD/svg11.dtd"><svg t="1775895497811" class="icon" viewBox="0 0 1024 1024" version="1.1" xmlns="http://www.w3.org/2000/svg" p-id="5003" data-darkreader-inline-fill="" xmlns:xlink="http://www.w3.org/1999/xlink" width="200" height="200"><path d="M819.165867 93.696h-614.4c-56.661333 0-102.4 46.08-102.4 102.4v268.288c0 56.32 45.738667 102.4 102.4 102.4h232.106666c-2.048-32.085333 9.557333-64.170667 33.109334-88.064a114.688 114.688 0 0 1 115.029333-28.330667l298.325333 93.525334c23.210667-18.773333 38.229333-47.445333 38.229334-79.530667v-268.288c0-56.32-46.08-102.4-102.4-102.4z m-33.450667 270.677333H238.216533c-18.773333 0-34.133333-15.36-34.133333-34.133333s15.36-34.133333 34.133333-34.133333h547.498667c18.773333 0 34.133333 15.36 34.133333 34.133333s-15.36 34.133333-34.133333 34.133333z" p-id="5004" fill="#1296db" data-darkreader-inline-fill="" style="--darkreader-inline-fill: var(--darkreader-background-1296db, #0f7ab2);"></path><path d="M921.565867 664.405333a45.397333 45.397333 0 0 0-32.085334-46.762666l-324.949333-102.058667c-16.384-5.12-34.133333-0.341333-46.08 11.605333a45.8752 45.8752 0 0 0-11.605333 46.08l102.058666 324.949334c6.144 19.456 23.552 32.085333 43.349334 32.085333h3.754666c21.504-1.365333 38.229333-17.066667 41.984-38.229333l9.216-54.954667 68.266667 68.266667c17.749333 18.432 47.104 18.432 64.853333 0l56.661334-56.32c18.090667-17.749333 18.090667-47.104 0-64.853334l-68.608-68.266666 54.954666-9.557334c21.504-3.413333 36.864-20.138667 38.229334-41.984z" p-id="5005" fill="#1296db" data-darkreader-inline-fill="" style="--darkreader-inline-fill: var(--darkreader-background-1296db, #0f7ab2);"></path></svg>