<?xml version="1.0" standalone="no"?><!DOCTYPE svg PUBLIC "-//W3C//DTD SVG 1.1//EN" "http://www.w3.org/Graphics/SVG/1.1/DTD/svg11.dtd"><svg t="1781165971489" class="icon" viewBox="0 0 1524 1024" version="1.1" xmlns="http://www.w3.org/2000/svg" p-id="1629" data-darkreader-inline-fill="" xmlns:xlink="http://www.w3.org/1999/xlink" width="297.65625" height="200"><path d="M0 117.322409m46.267341 0l536.307877 0q46.267341 0 46.267341 46.26734l0 647.742767q0 46.267341-46.267341 46.267341l-536.307877 0q-46.267341 0-46.267341-46.267341l0-647.742767q0-46.267341 46.267341-46.26734Z" fill="#3065E8" p-id="1630" data-darkreader-inline-fill="" style="--darkreader-inline-fill: var(--darkreader-background-3065e8, #133eaa);"></path><path d="M647.742767 117.322409m46.267341 0l536.307877 0q46.267341 0 46.267341 46.26734l0 647.742767q0 46.267341-46.267341 46.267341l-536.307877 0q-46.267341 0-46.267341-46.267341l0-647.742767q0-46.267341 46.267341-46.26734Z" fill="#254DAF" p-id="1631" data-darkreader-inline-fill="" style="--darkreader-inline-fill: var(--darkreader-background-254daf, #1f4193);"></path><path d="M693.894439 117.831349C900.13111 117.310842 1044.103506 78.041437 1125.800063 0v743.458328c-49.205317 73.518804-192.96951 111.550558-431.315715 114.083695A46.267341 46.267341 0 0 1 647.742767 811.297816V164.087123a46.267341 46.267341 0 0 1 46.151672-46.26734z" fill="#3EA2FF" p-id="1632" data-darkreader-inline-fill="" style="--darkreader-inline-fill: var(--darkreader-background-3ea2ff, #0056a6);"></path></svg>